# xmcd
#
# Track frame offsets: 
#        150
#        19038
#        42292
#        63980
#        83175
#        101160
#        137299
#        152312
#        169545
#        188434
#        216067
#        232939
#        246400
#        263545
#        280839
#
# Disc length: 4038 seconds
#
# Revision: 0
# Processed by: cddbd v1.5.2PL0 Copyright (c) Steve Scherf et al.
# Submitted via: ExactAudioCopy v1.0b4
#
DISCID=b50fc40f
DTITLE=Linsey Alexander - Two Cats
DYEAR=2017
DGENRE=Blues
TTITLE0=I'm Not Your Problem
TTITLE1=Where Did You Take Your Clothes Off Last Night
TTITLE2=That Ain't Right
TTITLE3=Why I Sing The Blues
TTITLE4=Two Cats
TTITLE5=Facebook Woman
TTITLE6=User
TTITLE7=I'm In Love With A Woman
TTITLE8='Til I Kissed You
TTITLE9=How Could You Do Me Like You Done Me
TTITLE10=Reefer And Blow
TTITLE11=Thinking About Me
TTITLE12=Starting Monday
TTITLE13=Comb Over Blues
TTITLE14=Kiss Revisited
EXTD=
EXTT0=
EXTT1=
EXTT2=
EXTT3=
EXTT4=
EXTT5=
EXTT6=
EXTT7=
EXTT8=
EXTT9=
EXTT10=
EXTT11=
EXTT12=
EXTT13=
EXTT14=
PLAYORDER=
